Coordinates
version=1
nRows=43
nColumns=19
inDegrees=yes

Units are S.I. units (second, meters, Newtons, ...)
Angles are in degrees.

endheader
time	1_Force_X	1_Force_Y	1_Force_Z	1_Moment_X	1_Moment_Y	1_Moment_Z	1_COP_X	1_COP_Y	1_COP_Z	2_Force_X	2_Force_Y	2_Force_Z	2_Moment_X	2_Moment_Y	2_Moment_Z	2_COP_X	2_COP_Y	2_COP_Z
0.4525	-13.042	252.917	-1.009	-0.296	0.000	0.634	14.032	305.262	-5.710	-0.350	0.000	0.214	0.00000	0.07079	0.00000	0.00000	2.68509	0.00000
0.4550	-13.043	253.608	-1.232	-0.296	0.000	0.634	14.112	304.926	-4.572	-0.350	0.000	0.215	0.00000	0.03352	0.00000	0.00000	2.66524	0.00000
0.4575	-12.909	253.082	-1.190	-0.296	0.000	0.634	14.584	302.698	-3.654	-0.349	0.000	0.216	0.00000	-0.03790	0.00000	0.00000	2.62411	0.00000
0.4600	-13.178	253.950	-1.190	-0.296	0.000	0.635	15.102	301.158	-2.821	-0.349	0.000	0.217	0.00000	0.03937	0.00000	0.00000	2.61097	0.00000
0.4625	-13.392	253.957	-0.880	-0.296	0.000	0.634	14.837	301.333	-2.515	-0.348	0.000	0.217	0.00000	0.06190	0.00000	0.00000	2.61253	0.00000
0.4650	-13.748	256.389	-0.574	-0.296	0.000	0.634	15.402	300.478	-2.074	-0.348	0.000	0.218	0.00000	0.11840	0.00000	0.00000	2.60528	0.00000
0.4675	-13.699	254.824	-0.221	-0.296	0.000	0.635	15.744	299.106	-1.374	-0.348	0.000	0.219	0.00000	0.09881	0.00000	0.00000	2.50847	0.00000
0.4700	-13.562	255.171	0.306	-0.295	0.000	0.636	15.785	297.909	-0.939	-0.348	0.000	0.219	0.00000	0.11468	0.00000	0.00000	2.58427	0.00000
0.4725	-14.003	254.999	0.705	-0.296	0.000	0.636	16.348	295.677	-0.504	-0.348	0.000	0.220	0.00000	0.18323	0.00000	0.00000	2.49662	0.00000
0.4750	-13.604	254.986	1.228	-0.296	0.000	0.638	16.689	292.592	0.539	-0.348	0.000	0.221	0.00000	0.11709	0.00000	0.00000	2.50786	0.00000
0.4775	-13.560	256.371	1.974	-0.297	0.000	0.638	16.642	290.018	0.926	-0.348	0.000	0.221	0.00000	0.11125	0.00000	0.00000	2.54174	0.00000
0.4800	-13.819	257.071	2.634	-0.296	0.000	0.638	16.723	287.276	1.574	-0.347	0.000	0.222	0.00000	0.18222	0.00000	0.00000	2.58611	0.00000
0.4825	-14.211	258.640	3.075	-0.296	0.000	0.637	16.370	285.901	1.610	-0.346	0.000	0.222	0.00000	0.20360	0.00000	0.00000	2.55631	0.00000
0.4850	-14.651	259.854	3.645	-0.296	0.000	0.638	16.363	282.123	2.033	-0.346	0.000	0.222	0.00000	0.26305	0.00000	0.00000	2.52255	0.00000
0.4875	-14.738	259.850	4.129	-0.296	0.000	0.639	16.273	278.859	2.111	-0.346	0.000	0.223	0.00000	0.27480	0.00000	0.00000	2.51979	0.00000
0.4900	-15.043	261.240	4.788	-0.296	0.000	0.639	15.966	275.941	2.099	-0.346	0.000	0.224	0.00000	0.27682	0.00000	0.00000	2.63136	0.00000
0.4925	-15.306	262.282	5.359	-0.296	0.000	0.639	16.136	273.705	2.224	-0.345	0.000	0.224	0.00000	0.32021	0.00000	0.00000	2.50368	0.00000
0.4950	-15.520	262.800	5.973	-0.296	0.000	0.640	16.093	271.129	1.954	-0.345	0.000	0.225	0.00000	0.29058	0.00000	0.00000	2.57711	0.00000
0.4975	-15.567	263.657	6.541	-0.297	0.000	0.641	16.223	267.693	1.899	-0.345	0.000	0.225	0.00000	0.28017	0.00000	0.00000	2.60063	0.00000
0.5000	-15.873	265.216	7.153	-0.296	0.000	0.641	16.181	264.768	1.277	-0.345	0.000	0.225	0.00000	0.31627	0.00000	0.00000	2.56846	0.00000
0.5025	-16.183	267.821	7.809	-0.297	0.000	0.641	16.396	261.847	1.313	-0.345	0.000	0.226	0.00000	0.39085	0.00000	0.00000	2.53519	0.00000
0.5050	-16.495	270.239	7.799	-0.297	0.000	0.642	16.223	259.959	1.131	-0.345	0.000	0.226	0.00000	0.31960	0.00000	0.00000	2.64415	0.00000
0.5075	-17.065	272.150	8.545	-0.297	0.000	0.642	16.048	258.062	0.595	-0.344	0.000	0.226	0.00000	0.35699	0.00000	0.00000	2.53392	0.00000
0.5100	-17.415	274.411	8.850	-0.296	0.000	0.641	15.829	257.033	0.504	-0.344	0.000	0.226	0.00000	0.38369	0.00000	0.00000	2.60802	0.00000
0.5125	-17.988	277.535	9.726	-0.297	0.000	0.641	15.564	255.659	0.672	-0.343	0.000	0.227	0.00000	0.44003	0.00000	0.00000	2.59755	0.00000
0.5150	-18.120	280.311	10.336	-0.297	0.000	0.641	15.603	252.915	1.187	-0.343	0.000	0.227	0.00000	0.46588	0.00000	0.00000	2.62763	0.00000
0.5175	-18.521	280.990	10.197	-0.297	0.000	0.642	15.642	250.174	2.013	-0.344	0.000	0.228	0.00000	0.42895	0.00000	0.00000	2.74957	0.00000
0.5200	-18.609	283.074	11.118	-0.297	0.000	0.642	15.242	247.258	2.614	-0.343	0.000	0.229	0.00000	0.51009	0.00000	0.00000	2.79725	0.00000
0.5225	-18.915	285.163	11.646	-0.297	0.000	0.641	15.235	245.543	3.176	-0.342	0.000	0.229	0.00000	0.54872	0.00000	0.00000	2.73546	0.00000
0.5250	-18.963	287.578	11.899	-0.297	0.000	0.642	15.268	243.151	4.787	-0.342	0.000	0.230	0.00000	0.48261	0.00000	0.00000	2.86049	0.00000
0.5275	-19.183	288.792	12.601	-0.297	0.000	0.643	15.217	240.408	5.609	-0.342	0.000	0.230	0.00000	0.58997	0.00000	0.00000	2.87372	0.00000
0.5300	-19.617	288.794	13.174	-0.297	0.000	0.643	14.946	237.836	6.561	-0.342	0.000	0.231	0.00000	0.54206	0.00000	0.00000	2.89148	0.00000
0.5325	-19.830	290.714	14.057	-0.297	0.000	0.642	14.328	236.297	7.383	-0.341	0.000	0.231	0.00000	0.57665	0.00000	0.00000	2.98922	0.00000
0.5350	-19.743	289.663	14.452	-0.298	0.000	0.643	14.797	232.529	8.771	-0.341	0.000	0.231	0.00000	0.56832	0.00000	0.00000	3.01177	0.00000
0.5375	-20.129	289.152	15.648	-0.298	0.000	0.643	14.307	230.302	9.812	-0.341	0.000	0.232	0.00000	0.62823	0.00000	0.00000	3.07266	0.00000
0.5400	-20.430	289.344	16.185	-0.297	0.000	0.642	13.994	228.246	10.633	-0.340	0.000	0.232	0.00000	0.68155	0.00000	0.00000	3.10807	0.00000
0.5425	-20.378	287.261	16.851	-0.297	0.000	0.642	13.988	226.017	11.192	-0.339	0.000	0.233	0.00000	0.66862	0.00000	0.00000	3.12020	0.00000
0.5450	-20.634	285.534	17.697	-0.298	0.000	0.642	13.937	224.649	12.017	-0.339	0.000	0.233	0.00000	0.67442	0.00000	0.00000	3.14956	0.00000
0.5475	-20.492	283.286	18.234	-0.297	0.000	0.642	14.065	222.933	12.363	-0.339	0.000	0.233	0.00000	0.68339	0.00000	0.00000	3.15328	0.00000
0.5500	-20.839	282.079	18.727	-0.298	0.000	0.642	13.625	221.560	12.660	-0.339	0.000	0.233	0.00000	0.68361	0.00000	0.00000	3.19249	0.00000
0.5525	-20.837	278.606	19.089	-0.299	0.000	0.643	13.883	219.162	13.312	-0.340	0.000	0.234	0.00000	0.69894	0.00000	0.00000	3.26558	0.00000
0.5550	-20.880	277.570	18.918	-0.299	0.000	0.642	13.753	218.819	13.133	-0.339	0.000	0.233	0.00000	0.66554	0.00000	0.00000	3.32127	0.00000
0.5575	-21.755	275.503	19.018	-0.298	0.000	0.642	13.663	216.928	13.169	-0.339	0.000	0.233	0.00000	0.76256	0.00000	0.00000	3.26447	0.00000
